<svg width="41" height="28" viewBox="0 0 41 28" fill="none" xmlns="http://www.w3.org/2000/svg">
<mask id="mask0_16_22" style="mask-type:alpha" maskUnits="userSpaceOnUse" x="0" y="0" width="41" height="28">
<rect width="41" height="28" fill="#D9D9D9"/>
</mask>
<g mask="url(#mask0_16_22)">
<path fill-rule="evenodd" clip-rule="evenodd" d="M33.9056 9.46179C34.1545 9.91158 34.3825 10.4282 34.4132 10.7974C34.151 11.1065 33.8288 11.2157 33.8288 11.2157L30.389 13.1315C30.389 13.1315 7.95498 26.059 4.8327 27.2341C4.54446 27.184 4.34427 26.8037 4.23536 26.5919C4.10639 26.3917 3.87742 26.0287 3.97785 25.7535C6.55665 23.6371 28.9693 10.6724 28.9693 10.6724L32.3483 8.65136C32.3483 8.65136 32.6043 8.42739 33.0027 8.35441C33.3071 8.5656 33.6405 9.02138 33.9056 9.46179Z" fill="#AB7339"/>
<path fill-rule="evenodd" clip-rule="evenodd" d="M33.8287 11.2157C35.5472 14.2414 38.0203 14.6407 40.5828 15.4756C40.8985 18.3262 32.9125 22.715 30.6998 21.215C31.8781 18.3861 31.7924 15.7268 30.3889 13.1314C30.3889 13.1314 24.8775 14.668 24.9878 15.8C24.6109 15.4796 24.0391 16.0403 23.6465 15.4182C23.2607 14.8089 24.0602 14.4088 23.9667 14.0604C25.016 14.6161 28.9691 10.6724 28.9691 10.6724C27.4235 8.15967 25.1631 6.75529 22.124 6.36132C21.9314 3.69511 29.7254 -1.02634 32.0361 0.672395C31.4778 3.30885 30.5873 5.65071 32.348 8.65115C32.0109 8.89119 33.4397 11.5121 33.8285 11.2155L33.8287 11.2157Z" fill="#414141"/>
<path fill-rule="evenodd" clip-rule="evenodd" d="M31.8785 1.47957C31.7176 1.58937 31.2463 1.77905 30.9921 1.94457C30.7379 2.11012 30.2661 1.4412 29.9432 1.64622C29.6202 1.85126 29.0758 2.00376 28.7088 2.23207C28.3417 2.46038 27.8515 2.1516 27.465 2.38688C27.0783 2.6223 26.2867 3.56514 25.9053 3.79127C25.5234 4.01765 24.989 3.97053 24.6371 4.1714C24.2853 4.37222 24.1585 5.3809 23.8609 5.54019C23.5632 5.69948 23.3029 6.44313 23.0841 6.54458C22.8175 6.46598 22.5692 6.37857 22.1242 6.36145C21.9315 3.69509 29.7255 -1.02635 32.0362 0.672377C31.8621 1.63556 31.9026 1.16128 31.8785 1.47957ZM30.9643 20.5124C31.2031 20.5336 31.51 20.484 31.8657 20.3789C32.2211 20.2733 32.5988 20.6046 33.0312 20.4031C33.4635 20.2016 33.6469 19.8097 34.1168 19.5424C34.5864 19.2746 35.6033 19.0056 36.0705 18.7024C36.5373 18.3996 36.7584 17.7205 37.1834 17.4123C37.6081 17.1036 38.3238 17.068 38.6668 16.7844C39.0101 16.5014 38.9804 15.9698 39.202 15.7417C39.4235 15.5135 39.5745 15.3207 39.6346 15.1778C40.0016 15.2907 40.4097 15.4293 40.5827 15.4758C40.8984 18.3264 32.9124 22.7152 30.6997 21.2152C30.8096 20.976 30.8913 20.7403 30.9643 20.5124L30.9643 20.5124Z" fill="#A3A3A3"/>
<path opacity="0.75" fill-rule="evenodd" clip-rule="evenodd" d="M32.0625 0.659381L31.9584 1.16109C28.8805 -0.564646 21.9602 4.51086 22.13 6.36408C21.9096 3.643 29.777 -1.03248 32.0624 0.659468L32.0625 0.659381ZM32.3368 8.69993C32.2443 9.12428 32.7106 10.5165 33.7741 11.3547C33.2188 11.406 32.3453 9.54311 32.078 9.32654C31.9008 9.18289 29.5067 10.7129 29.449 10.8919C29.3846 11.0941 29.6274 11.6964 29.6274 11.6964C29.6274 11.6964 29.4041 11.1891 29.1983 11.0366C28.851 10.7787 26.258 13.4887 24.8731 14.1633C24.7363 14.2296 24.0876 14.2359 24.0876 14.2359C24.0876 14.2359 23.9946 14.5355 23.5719 14.9146C23.7708 14.4615 24.0887 14.3107 23.9969 14.0938C24.2913 14.2332 24.8707 14.0156 24.8707 14.0156C26.6771 13.0235 28.5801 11.1048 29.0766 10.6497C29.918 10.1011 31.3299 9.39221 32.0504 8.86528C32.3599 8.63849 32.0832 8.17803 32.0832 8.17803L32.3368 8.69993ZM32.4114 8.58602L32.9748 8.35096C33.4623 8.77927 34.1058 9.62409 34.3753 10.7858C34.3753 10.7858 33.4868 8.62945 33.0093 8.50748C32.7358 8.43814 32.4114 8.58602 32.4114 8.58602ZM28.5462 10.9894C21.8374 14.8587 10.6426 21.3274 4.10611 25.6699L3.97964 26.0297C10.5375 21.5899 21.8585 15.0884 28.5462 10.9894Z" fill="white"/>
<path opacity="0.25" fill-rule="evenodd" clip-rule="evenodd" d="M30.6997 21.2064L30.8806 20.7858C34.9504 21.8619 40.4224 17.8125 40.6024 15.4978C40.8772 17.7865 33.9447 22.7928 30.6997 21.2064ZM30.3256 13.1606C29.6718 13.7807 5.47752 27.1217 4.82837 27.1804C4.46139 27.2138 3.97994 25.9968 3.97994 25.9968C3.97994 25.9968 4.38634 26.9484 4.86308 27.0414C5.237 27.1149 29.8136 13.495 30.3256 13.1606ZM33.5346 11.4209L30.5335 13.1422C31.627 14.9783 32.3533 17.4795 30.9649 20.7004C31.868 18.0604 31.6733 15.0284 30.4242 13.1658L29.7705 12.206C29.7705 12.206 30.3229 12.951 30.5257 13.0117C30.6179 13.0393 33.5346 11.4209 33.5346 11.4209ZM30.3593 13.1078C29.8154 13.3857 25.3859 14.444 24.961 15.7754C24.6811 15.4584 23.6952 16.1667 23.5727 15.128C24.0324 15.9786 24.5581 15.5395 24.9177 15.6379C25.0495 14.9297 27.942 13.7027 30.3593 13.1078ZM22.5843 6.38965C25.4223 6.68647 27.6446 8.72288 28.9812 10.6293L29.1544 10.4618C28.1262 8.60208 25.0904 6.2482 22.5843 6.38965Z" fill="black"/>
<path fill-rule="evenodd" clip-rule="evenodd" d="M6.65964 9.49914C6.92473 9.05873 7.25812 8.60295 7.56257 8.39176C7.96128 8.46424 8.21696 8.68871 8.21696 8.68871L11.5959 10.7097C11.5959 10.7097 34.0086 23.6744 36.5874 25.7908C36.6881 26.0655 36.4589 26.4291 36.3299 26.6293C36.221 26.8411 36.0211 27.2209 35.7325 27.2715C32.6103 26.0964 10.1762 13.1688 10.1762 13.1688L6.73644 11.253C6.73644 11.253 6.41449 11.1434 6.15208 10.8348C6.18275 10.4655 6.41078 9.94893 6.65964 9.49914Z" fill="#AB7339"/>
<path fill-rule="evenodd" clip-rule="evenodd" d="M8.21686 8.68889C9.97798 5.68775 9.08722 3.34629 8.52907 0.70966C10.8399 -0.989013 18.6337 3.73262 18.441 6.39888C15.4019 6.7929 13.1418 8.19673 11.5959 10.7099C11.5959 10.7099 15.6823 14.7146 16.6075 14.0532C16.5184 14.5397 17.2899 14.7546 16.9474 15.4056C16.6127 16.0444 15.8664 15.5521 15.6115 15.8072C15.5681 14.6206 10.1762 13.169 10.1762 13.169C8.77289 15.7639 8.68686 18.4237 9.8652 21.2526C7.65254 22.7525 -0.333376 18.3634 -0.0175887 15.5129C2.5448 14.6782 5.01818 14.2785 6.73628 11.2534C7.11269 11.4253 8.66809 8.87749 8.2168 8.68912L8.21686 8.68889Z" fill="#414141"/>
<path fill-rule="evenodd" clip-rule="evenodd" d="M0.760337 15.2458C0.935874 15.3303 1.33577 15.6436 1.6062 15.7809C1.87668 15.9183 1.53328 16.6614 1.87229 16.8385C2.21135 17.0157 2.61561 17.4109 2.99688 17.6146C3.37814 17.8184 3.35582 18.3973 3.7528 18.6143C4.15003 18.8315 5.36236 19.0456 5.74889 19.2629C6.13588 19.4804 6.36231 19.9668 6.71219 20.1711C7.06205 20.3754 7.99895 19.9808 8.28573 20.159C8.57251 20.3371 9.34671 20.1908 9.54395 20.3295C9.60918 20.5997 9.65762 20.8584 9.86528 21.2523C7.65253 22.7524 -0.333386 18.3633 -0.0175991 15.5128C0.903597 15.182 0.472614 15.3841 0.760337 15.2458ZM17.7003 6.52111C17.5992 6.30371 17.4029 6.0627 17.134 5.80723C16.8649 5.55225 16.9629 5.05949 16.5722 4.78582C16.1816 4.51214 15.7504 4.54927 15.284 4.27597C14.8173 4.00318 14.0759 3.257 13.5797 3.00396C13.0841 2.75121 12.3855 2.89924 11.906 2.68524C11.4263 2.47177 11.0377 1.86978 10.6206 1.71452C10.2038 1.55877 9.75828 1.85024 9.44992 1.77246C9.14155 1.69467 8.89914 1.66031 8.7453 1.67976C8.65953 1.30544 8.57553 0.882683 8.52934 0.709651C10.8402 -0.989021 18.634 3.73261 18.4412 6.39888C18.1792 6.42334 17.9342 6.47035 17.7003 6.52114L17.7003 6.52111Z" fill="#A3A3A3"/>
<path opacity="0.75" fill-rule="evenodd" clip-rule="evenodd" d="M-0.0419559 15.4965L0.444623 15.3359C0.489007 18.8642 8.34468 22.3196 9.86475 21.246C7.6184 22.7974 -0.364372 18.3218 -0.0418055 15.4966L-0.0419559 15.4965ZM6.78421 11.2387C7.198 11.1067 8.17055 10.0067 8.36467 8.66656C8.68678 9.12186 7.51018 10.8097 7.45629 11.1495C7.42047 11.3748 9.94254 12.6832 10.1264 12.6437C10.3337 12.5983 10.7339 12.0869 10.7339 12.0869C10.7339 12.0869 10.4063 12.5339 10.377 12.7884C10.3274 13.2182 13.9708 14.1087 15.2475 14.9708C15.3733 15.0561 15.7031 15.6148 15.7031 15.6148C15.7031 15.6148 16.0091 15.5455 16.5487 15.722C16.0569 15.7763 15.7674 15.5763 15.6254 15.7644C15.599 15.4397 15.1208 15.0467 15.1208 15.0467C13.3584 13.9784 10.7452 13.2897 10.1029 13.0872C9.20707 12.6328 7.88721 11.7646 7.07062 11.404C6.71947 11.2494 6.45904 11.7193 6.45904 11.7193L6.78421 11.2387ZM6.64828 11.231L6.163 10.8606C6.29019 10.2243 6.70009 9.24465 7.57137 8.43043C7.57137 8.43043 6.14819 10.278 6.2813 10.7525C6.35799 11.024 6.64828 11.231 6.64828 11.231ZM10.6622 13.3767C17.3676 17.2521 28.567 23.7127 35.596 27.2022L35.9708 27.1319C28.8469 23.6725 17.556 17.119 10.6622 13.3767Z" fill="white"/>
<path opacity="0.25" fill-rule="evenodd" clip-rule="evenodd" d="M18.4337 6.40324L17.979 6.45685C16.8761 2.39426 10.6331 -0.319899 8.53853 0.68157C10.3832 -0.700778 18.1851 2.79981 18.4337 6.40324ZM11.6529 10.75C12.5168 11.0062 36.1676 25.2886 36.543 25.8214C36.7554 26.1225 35.9422 27.148 35.9422 27.148C35.9422 27.148 36.5631 26.3202 36.4053 25.8609C36.282 25.5003 12.1985 11.0263 11.6529 10.75ZM8.54172 8.84088L11.5329 10.5792C12.5763 8.71419 14.3793 6.83459 17.8629 6.42654C15.125 6.9644 12.5966 8.64903 11.6081 10.6621L11.1037 11.7081C11.1037 11.7081 11.4727 10.8572 11.4239 10.6513C11.4017 10.5576 8.54172 8.84088 8.54172 8.84088ZM11.5903 10.7473C12.103 11.0794 15.2342 14.3863 16.5997 14.0886C16.4651 14.4895 17.5714 14.9892 16.7331 15.6146C17.24 14.7911 16.5968 14.5554 16.5023 14.1948C15.823 14.4348 13.3142 12.5433 11.5903 10.7473ZM9.65971 20.8397C8.49779 18.2336 9.15022 15.2908 10.133 13.18L9.90123 13.1137C8.80479 14.9341 8.28419 18.7401 9.65971 20.8397Z" fill="black"/>
</g>
</svg>
