<svg width="23" height="24" viewBox="0 0 23 24" fill="none" xmlns="http://www.w3.org/2000/svg">
<path d="M10.3014 0.0152272C7.14136 1.95987 5.26616 4.70322 4.79488 8.33951C4.45755 10.9489 5.033 13.3748 6.43196 15.6022C7.48862 17.2839 8.90741 18.5886 10.6735 19.5063C12.4246 20.4191 14.2899 20.821 16.2643 20.7466C18.2487 20.6721 20.0643 20.0669 21.8304 18.9954C19.6823 22.2894 14.4288 25.1667 8.77347 23.5246C2.85024 21.8032 -0.910077 15.8254 0.191228 9.87737C1.14371 4.73794 6.26825 -0.302266 10.3014 0.0152272Z" fill="black"/>
<path d="M16.5325 3.16997C16.9194 2.10339 17.2468 1.19556 17.6784 0C18.1249 1.18068 18.4672 2.10835 18.8541 3.14021C19.8413 3.14021 20.8137 3.14021 22.1184 3.14021C21.0915 3.9389 20.3325 4.52924 19.504 5.17415C19.7719 6.13159 20.0447 7.09399 20.392 8.32428C19.3552 7.6248 18.5466 7.07415 17.6883 6.49869C16.85 7.06423 16.0364 7.61488 14.9797 8.32428C15.3171 7.13368 15.585 6.19608 15.8727 5.18407C15.0938 4.57885 14.3199 3.97859 13.2881 3.17493C14.5581 3.16997 15.5155 3.16997 16.5325 3.16997Z" fill="black"/>
<path d="M11.0603 13.5077C11.3133 12.8529 11.5415 12.2576 11.8491 11.4639C12.1666 12.2626 12.4097 12.8628 12.6627 13.5077C13.3274 13.5425 13.9574 13.5821 14.8206 13.6318C14.1608 14.1675 13.6796 14.5644 13.1488 15.0009C13.3175 15.6409 13.4812 16.2759 13.7094 17.144C12.9653 16.6579 12.4196 16.3007 11.854 15.9336C11.2935 16.3056 10.7577 16.6579 10.0185 17.144C10.2318 16.3205 10.3906 15.7203 10.5692 15.0208C10.088 14.619 9.58198 14.1973 8.90234 13.6367C9.73576 13.5821 10.3559 13.5474 11.0603 13.5077Z" fill="black"/>
<path d="M20.6898 13.6475C20.9775 13.6971 21.2603 13.7467 21.6472 13.8161C21.3843 14.0989 21.1908 14.3073 20.9676 14.5454C21.0073 14.8331 21.0519 15.1407 21.1164 15.5723C20.7493 15.3788 20.4765 15.2399 20.1937 15.0911C19.9159 15.2349 19.6381 15.3739 19.266 15.5624C19.3256 15.1457 19.3752 14.8381 19.4297 14.4561C19.2065 14.3023 18.9734 14.1336 18.5566 13.841C19.0775 13.7517 19.3553 13.7021 19.6927 13.6475C19.8167 13.4044 19.9556 13.1216 20.164 12.7148C20.3723 13.077 20.5261 13.3598 20.6898 13.6475Z" fill="black"/>
<path d="M10.1771 6.98537C10.4648 7.03498 10.7476 7.08459 11.1345 7.15404C10.8716 7.43681 10.6781 7.64516 10.4549 7.88328C10.4946 8.17101 10.5392 8.47858 10.6037 8.91018C10.2366 8.7167 9.96379 8.5778 9.68102 8.42897C9.40321 8.57284 9.12541 8.71174 8.75335 8.90025C8.81288 8.48354 8.86248 8.17597 8.91705 7.79399C8.69381 7.6402 8.46066 7.47153 8.04395 7.17884C8.56483 7.08955 8.84264 7.03994 9.17998 6.98537C9.304 6.74229 9.4429 6.45952 9.65126 6.05273C9.85961 6.41984 10.0184 6.69764 10.1771 6.98537Z" fill="black"/>
</svg>
