<svg width="24" height="24" viewBox="0 0 24 24" fill="none" xmlns="http://www.w3.org/2000/svg">
<path d="M11.6504 23.8109C11.6146 23.6867 11.3869 22.9115 11.1444 22.0882C10.9018 21.2648 10.7034 20.5552 10.7034 20.5112C10.7034 20.4672 11.1824 20.4312 11.7679 20.4312C12.5684 20.4312 12.8179 20.4695 12.7737 20.5858C12.7414 20.6708 12.5056 21.464 12.2496 22.3483C11.9936 23.2326 11.7687 23.9743 11.7498 23.9964C11.7309 24.0186 11.6862 23.9351 11.6504 23.8109ZM7.66985 22.3483C7.8872 19.4152 7.86776 19.5417 8.08644 19.637C8.19923 19.6862 8.62546 19.843 9.03362 19.9855C9.44178 20.128 9.79624 20.2561 9.8213 20.2701C9.86246 20.2931 7.97948 22.9179 7.70933 23.2141C7.64103 23.289 7.62545 22.9474 7.66985 22.3483ZM14.7922 21.9178C14.2408 21.1708 13.764 20.489 13.7328 20.4026C13.6962 20.3013 13.9493 20.1528 14.447 19.9836C14.871 19.8395 15.3094 19.6827 15.4214 19.6352C15.6019 19.5586 15.634 19.7276 15.7055 21.1341C15.7498 22.006 15.8124 22.8446 15.8445 22.9976C15.8766 23.1507 15.8785 23.2759 15.8489 23.2759C15.8192 23.2759 15.3437 22.6648 14.7923 21.9178H14.7922ZM4.44694 20.2147C4.67418 19.6875 5.00429 18.9331 5.18052 18.5383L5.50092 17.8204L6.30871 18.4677C6.753 18.8237 7.11651 19.1318 7.11651 19.1522C7.11651 19.2031 4.17063 21.1733 4.09456 21.1733C4.06112 21.1733 4.21969 20.7419 4.44694 20.2147ZM17.7877 20.1482L16.2759 19.1628L16.6127 18.9107C16.7979 18.772 17.1581 18.4618 17.4131 18.2213C17.6896 17.9605 17.9177 17.8315 17.9783 17.9016C18.1251 18.0715 19.401 21.0529 19.3458 21.0968C19.3203 21.117 18.6192 20.6902 17.7877 20.1482ZM9.91734 19.1221C8.21909 18.711 6.26641 17.2396 5.41739 15.7312C2.63466 10.7873 6.12485 4.72687 11.7547 4.72687C13.7381 4.72687 15.353 5.41205 16.8389 6.88398C18.3642 8.395 19.0308 9.98272 19.0211 12.0817C19.012 14.0764 18.2795 15.8202 16.8608 17.2249C15.9321 18.1445 14.4827 18.9477 13.3256 19.1841C12.4378 19.3655 10.7996 19.3357 9.91734 19.1221ZM20.2889 17.6168C19.3365 17.3779 18.5373 17.1652 18.5129 17.1442C18.4885 17.1231 18.5786 16.9497 18.7132 16.7587C18.8478 16.5677 19.0816 16.1671 19.2327 15.8685L19.5076 15.3257L20.6797 16.487C21.6293 17.4279 22.2615 18.1534 22.0558 18.0662C22.0364 18.058 21.2413 17.8558 20.2889 17.6168ZM2.60442 16.6897C3.26585 15.9924 3.842 15.41 3.88478 15.3954C3.92755 15.3808 4.19294 15.7704 4.47454 16.2612L4.98657 17.1535L3.36138 17.5528C2.46753 17.7724 1.66097 17.9533 1.56903 17.9548C1.47707 17.9563 1.943 17.387 2.60442 16.6897ZM1.427 14.3031C0.71272 14.2132 0.0726478 14.1336 0.00462331 14.1262C-0.0634036 14.1188 0.627412 13.7507 1.53976 13.3082C2.68073 12.7548 3.22613 12.5482 3.28679 12.6464C3.33531 12.7249 3.40972 13.0845 3.45217 13.4456C3.4946 13.8068 3.56319 14.1904 3.60456 14.2983C3.69705 14.5393 3.31032 14.5401 1.427 14.3031ZM19.904 14.1542C19.9463 13.9671 20.0162 13.5218 20.0595 13.1647C20.1027 12.8076 20.1998 12.5183 20.2753 12.5218C20.3508 12.5253 21.1083 12.8813 21.9587 13.3129C23.715 14.2044 23.7514 14.1155 21.5258 14.3676C19.8333 14.5592 19.8131 14.5566 19.904 14.1542ZM1.55068 10.7782C0.632324 10.3122 -0.0410867 9.92799 0.0542006 9.92444C0.149485 9.92088 0.973337 9.82811 1.88497 9.71826C2.7966 9.60841 3.56835 9.54442 3.59999 9.57606C3.65311 9.62917 3.49962 10.5195 3.30326 11.2974L3.22043 11.6256L1.55068 10.7782ZM20.1786 11.5599C20.1372 11.5185 20.1034 11.3238 20.1034 11.1271C20.1034 10.9305 20.0406 10.5202 19.9638 10.2154C19.8871 9.91054 19.8561 9.62928 19.8951 9.59035C19.9543 9.53115 23.4531 9.89206 23.5302 9.96532C23.5442 9.97862 22.8127 10.3598 21.9047 10.8123C20.9967 11.2648 20.22 11.6012 20.1786 11.5599ZM2.66731 7.44806C1.96998 6.69772 1.4431 6.0838 1.49647 6.0838C1.63061 6.0838 4.93998 6.86411 5.0028 6.91055C5.03072 6.93119 4.96308 7.04808 4.85247 7.1703C4.74186 7.29252 4.49021 7.71197 4.29327 8.10242L3.93519 8.81233L2.66731 7.44806ZM19.0222 7.84188C18.7337 7.32728 18.5111 6.89974 18.5275 6.89178C18.6869 6.81459 21.9817 6.06653 22.0127 6.10047C22.0355 6.12532 21.4899 6.73781 20.8004 7.46158L19.5468 8.77752L19.0222 7.84188ZM5.37686 6.00076C5.30452 5.81046 5.04729 5.20863 4.80525 4.66336C4.0055 2.86165 3.99623 2.83639 4.17264 2.94091C4.45647 3.10908 6.92767 4.75278 7.02038 4.83507C7.06954 4.87871 6.74946 5.2367 6.30908 5.63059L5.5084 6.34673L5.37686 6.00076ZM17.5689 5.96116C17.3752 5.75908 17.0025 5.44522 16.7406 5.2637L16.2644 4.93367L17.7819 3.91624C18.6165 3.35665 19.3171 2.91421 19.3388 2.93302C19.3711 2.96116 18.0304 6.20293 17.9467 6.29895C17.9325 6.31527 17.7625 6.16325 17.5689 5.96116ZM7.81228 3.58806C7.77427 3.08998 7.71063 2.23721 7.67085 1.693L7.59852 0.703518L8.73028 2.22703C9.35275 3.06496 9.84262 3.76665 9.81889 3.78633C9.79514 3.80601 9.44178 3.93537 9.03362 4.07381C8.62546 4.21225 8.19923 4.36335 8.08644 4.40958C7.90977 4.48199 7.87182 4.36828 7.81228 3.58806ZM15.0962 4.32612C14.9612 4.24788 14.5633 4.0949 14.2119 3.98618L13.573 3.78851L14.6335 2.3398C15.2168 1.54301 15.7185 0.915595 15.7485 0.945536C15.7784 0.975477 15.7624 1.78206 15.7129 2.73794C15.6199 4.53427 15.5896 4.61222 15.0962 4.32612ZM10.7034 3.52857C10.7034 3.48372 10.9361 2.67145 11.2205 1.72351L11.7377 0L12.2679 1.77414C12.5595 2.74991 12.7999 3.56218 12.802 3.57919C12.8042 3.59619 12.3329 3.61011 11.7547 3.61011C11.1765 3.61011 10.7034 3.57342 10.7034 3.52857Z" fill="#0B0C10"/>
</svg>
