<svg width="20" height="23" viewBox="0 0 20 23" fill="none" xmlns="http://www.w3.org/2000/svg">
<path d="M1.20114e-09 6.6875V5.18359C0.0290179 4.63932 0.246652 4.18099 0.652902 3.80859C1.05915 3.4362 1.53795 3.25 2.08929 3.25H4.17857V2.5625C4.17857 1.98958 4.3817 1.5026 4.78795 1.10156C5.1942 0.700521 5.6875 0.5 6.26786 0.5H13.2321C13.8125 0.5 14.3058 0.700521 14.7121 1.10156C15.1183 1.5026 15.3214 1.98958 15.3214 2.5625V3.25H17.4107C17.9621 3.25 18.4408 3.4362 18.8471 3.80859C19.2533 4.18099 19.471 4.63932 19.5 5.18359V6.6875C19.5 7.0599 19.3622 7.38217 19.0865 7.65431C18.8108 7.92645 18.4844 8.06251 18.1071 8.0625V19.75C18.1071 20.5234 17.8387 21.1751 17.3019 21.7051C16.7651 22.235 16.1049 22.5 15.3214 22.5H4.17857C3.39509 22.5 2.73493 22.235 2.19809 21.7051C1.66125 21.1751 1.39284 20.5235 1.39286 19.75V8.0625C1.01562 8.0625 0.68917 7.92644 0.413493 7.65431C0.137816 7.38218 -1.48569e-05 7.05991 1.20114e-09 6.6875ZM1.39286 6.6875H18.1071V5.3125C18.1071 5.11198 18.0418 4.94726 17.9113 4.81835C17.7807 4.68944 17.6138 4.62498 17.4107 4.62498H2.08926C1.88614 4.62498 1.71928 4.68944 1.58869 4.81835C1.45811 4.94726 1.39281 5.11198 1.39281 5.3125V6.6875H1.39286ZM2.78571 19.75C2.78571 20.1224 2.92355 20.4447 3.19921 20.7168C3.47487 20.9889 3.80132 21.125 4.17857 21.125H15.3214C15.6987 21.125 16.0251 20.9889 16.3008 20.7168C16.5765 20.4447 16.7143 20.1224 16.7143 19.75V8.0625H2.78571V19.75ZM4.17857 19.0625V10.125C4.17857 9.92448 4.24387 9.75976 4.37445 9.63085C4.50504 9.50194 4.6719 9.43748 4.87502 9.43748H6.26788C6.471 9.43748 6.63786 9.50194 6.76845 9.63085C6.89904 9.75976 6.96433 9.92448 6.96433 10.125V19.0625C6.96433 19.263 6.89904 19.4277 6.76845 19.5567C6.63786 19.6856 6.471 19.75 6.26788 19.75H4.87502C4.6719 19.75 4.50504 19.6856 4.37445 19.5567C4.24387 19.4277 4.17857 19.263 4.17857 19.0625ZM4.875 19.0625H6.26786V10.125H4.875V19.0625ZM5.57143 3.25H13.9286V2.5625C13.9286 2.36198 13.8633 2.19726 13.7327 2.06835C13.6021 1.93943 13.4352 1.87498 13.2321 1.87498H6.26783C6.06471 1.87498 5.89785 1.93943 5.76727 2.06835C5.63668 2.19726 5.57138 2.36198 5.57138 2.5625V3.25H5.57143ZM8.35714 19.0625V10.125C8.35714 9.92448 8.42244 9.75976 8.55303 9.63085C8.68361 9.50194 8.85047 9.43748 9.05359 9.43748H10.4465C10.6496 9.43748 10.8164 9.50194 10.947 9.63085C11.0776 9.75976 11.1429 9.92448 11.1429 10.125V19.0625C11.1429 19.263 11.0776 19.4277 10.947 19.5567C10.8164 19.6856 10.6496 19.75 10.4465 19.75H9.05359C8.85047 19.75 8.68361 19.6856 8.55303 19.5567C8.42244 19.4277 8.35714 19.263 8.35714 19.0625ZM9.05357 19.0625H10.4464V10.125H9.05357V19.0625ZM12.5357 19.0625V10.125C12.5357 9.92448 12.601 9.75976 12.7316 9.63085C12.8622 9.50194 13.029 9.43748 13.2322 9.43748H14.625C14.8281 9.43748 14.995 9.50194 15.1256 9.63085C15.2562 9.75976 15.3215 9.92448 15.3215 10.125V19.0625C15.3215 19.263 15.2562 19.4277 15.1256 19.5567C14.995 19.6856 14.8281 19.75 14.625 19.75H13.2322C13.029 19.75 12.8622 19.6856 12.7316 19.5567C12.601 19.4277 12.5357 19.263 12.5357 19.0625ZM13.2321 19.0625H14.625V10.125H13.2321V19.0625Z" fill="#DADADA"/>
</svg>
